# xmcd
#
# Track frame offsets: 
#        150
#        3487
#        17875
#        36722
#        50985
#        63907
#        81350
#        102512
#        126175
#        147930
#        172535
#        189025
#        208150
#        237320
#        260555
#        300650
#
# Disc length: 4229 seconds
#
# Revision: 0
# Processed by: cddbd v1.5.2PL0 Copyright (c) Steve Scherf et al.
# Submitted via: ExactAudioCopy v0.99pb5
#
DISCID=e3108310
DTITLE=Zac Brown Band - Live The Rock The Bus Tour
DYEAR=2006
DGENRE=Country
TTITLE0=Intro
TTITLE1=A Different Kind Of Fine
TTITLE2=Every Little Bit
TTITLE3=Where The Boat Leaves From
TTITLE4=Mary
TTITLE5=Whatever It Is
TTITLE6=Toes
TTITLE7=Better Day
TTITLE8=It's Not Okay
TTITLE9=Chicken Fried
TTITLE10=On This Train
TTITLE11=Human
TTITLE12=Junkyard
TTITLE13=Heather
TTITLE14=DJ
TTITLE15=Sic 'em On A Chicken
EXTD=
EXTT0=
EXTT1=
EXTT2=
EXTT3=
EXTT4=
EXTT5=
EXTT6=
EXTT7=
EXTT8=
EXTT9=
EXTT10=
EXTT11=
EXTT12=
EXTT13=
EXTT14=
EXTT15=
PLAYORDER=
